<svg xmlns="http://www.w3.org/2000/svg" viewBox="0 0 16 16" fill="none" shape-rendering="crispEdges"><desc>"Pixel Art" by "Florian Körner", licensed under "CC0 1.0". / Remix of the original. - Created with dicebear.com</desc><metadata xmlns:dc="http://purl.org/dc/elements/1.1/" xmlns:cc="http://creativecommons.org/ns#" xmlns:rdf="http://www.w3.org/1999/02/22-rdf-syntax-ns#"><rdf:RDF><cc:Work><dc:title>Pixel Art</dc:title><dc:creator><cc:Agent rdf:about="https://dicebear.com"><dc:title>Florian Körner</dc:title></cc:Agent></dc:creator><dc:source>https://www.figma.com/community/file/1198754108850888330</dc:source><cc:license rdf:resource="https://creativecommons.org/licenses/zero/1.0/" /></cc:Work></rdf:RDF></metadata><mask id="viewboxMask"><rect width="16" height="16" rx="0" ry="0" x="0" y="0" fill="#fff" /></mask><g mask="url(#viewboxMask)"><path d="M4 2h8v1h1v3h1v2h-1v3h-1v1H9v1h4v1h1v2H2v-2h1v-1h4v-1H4v-1H3V8H2V6h1V3h1V2Z" fill="#e0b687"/><path d="M4 2h8v1h1v3h1v2h-1v3h-1v1H4v-1H3V8H2V6h1V3h1V2Z" fill="#fff" fill-opacity=".1"/><path d="M13 7h1v2h-1zM2 7h1v2H2z" fill="#d3d3d3"/><path d="M5 13H3v1H2v2h12v-2h-1v-1h-2v1H5v-1Z" fill="#00b159"/><path fill="#fff" fill-opacity=".3" d="M2 14h1v2H2zM6 14h1v2H6zM8 14h1v2H8zM10 14h1v2h-1zM4 13h1v3H4zM12 13h1v3h-1z"/><path fill="#fff" d="M4 5h3v2H4zM9 5h3v2H9z"/><path d="M11 5h-1v1H9v1h3V6h-1V5Z" fill="#647b90"/><path fill="#fff" fill-opacity=".5" d="M9 6h1v1H9zM10 5h1v1h-1zM11 6h1v1h-1z"/><path d="M6 5H5v1H4v1h3V6H6V5Z" fill="#647b90"/><path fill="#fff" fill-opacity=".5" d="M4 6h1v1H4zM5 5h1v1H5zM6 6h1v1H6z"/><path d="M6 10v1h1v1h2v-1h1v-1H9V9H7v1H6Z" fill="#c98276"/><path d="M7 10v1h2v-1H7Z" fill="#fff" fill-opacity=".2"/><path d="M4 2h8v1h1v2h1v6h1v2h-2v-1h-1V5h-1V4H5v1H4v7H3v1H1v-2h1V5h1V3h1V2Z" fill="#83623b"/></g></svg>
